<svg xmlns="http://www.w3.org/2000/svg" width="636" height="106" viewBox="0 0 636 106" version="1.1"><path d="M 378 17 L 378 29 397 29 L 416 29 416 17 L 416 5 397 5 L 378 5 378 17 M 328 20.607 C 328 33.761, 327.836 35.151, 326.352 34.582 C 322.576 33.133, 310.075 32.781, 304.895 33.978 C 294.316 36.422, 287.948 41.685, 283.090 52 C 280.718 57.037, 280.500 58.595, 280.500 70.500 C 280.500 82.729, 280.667 83.840, 283.314 89.230 C 288.138 99.055, 295.676 103.491, 309.500 104.641 C 315.177 105.113, 317.634 104.815, 322.500 103.065 C 332.149 99.594, 332 99.621, 332 101.383 C 332 102.805, 333.931 103, 348 103 L 364 103 364 54.500 L 364 6 346 6 L 328 6 328 20.607 M 8 56.439 L 8 103 39.818 103 C 74.848 103, 78.152 102.570, 85.821 97.015 C 93.895 91.166, 97.536 81.158, 95.831 69.500 C 95.221 65.324, 94.358 63.798, 90.598 60.240 L 86.095 55.980 89.285 50.848 C 91.930 46.593, 92.537 44.497, 92.836 38.579 C 93.034 34.654, 92.713 29.655, 92.123 27.471 C 90.646 22.008, 85.784 16.451, 79.649 13.216 L 74.500 10.500 41.250 10.189 L 8 9.878 8 56.439 M 450 16.596 C 443.675 17.914, 436.137 19.476, 433.250 20.067 L 428 21.142 428 27.571 L 428 34 424 34 L 420 34 420 47 L 420 60 424 60 L 428 60 428.008 67.750 C 428.028 88.298, 432.926 98.729, 444.424 102.714 C 450.679 104.881, 467.306 104.950, 474 102.837 L 478.500 101.416 478.783 90.195 L 479.066 78.975 473.516 79.627 C 465.267 80.597, 464 79.095, 464 68.345 L 464 60 470.361 60 L 476.721 60 477.352 54.750 C 477.699 51.862, 477.987 46.013, 477.991 41.750 L 478 34 471 34 L 464 34 464 24 C 464 16.613, 463.673 14.026, 462.750 14.100 C 462.063 14.155, 456.325 15.278, 450 16.596 M 497 15.253 C 494.176 16.259, 493.244 17.307, 492.177 20.680 C 491.041 24.271, 491.083 25.679, 492.477 30.680 C 493.369 33.881, 494.324 37.400, 494.598 38.500 C 494.962 39.960, 494.291 40.950, 492.114 42.166 C 485.794 45.696, 481.034 57.118, 481.012 68.807 C 480.981 85.019, 487.912 95.906, 501.694 101.298 C 509.055 104.178, 522.835 105.411, 533.038 104.103 C 550.748 101.831, 560.514 95.536, 564.933 83.542 C 567.433 76.756, 567.932 64.510, 566.015 57 C 564.570 51.338, 560.364 45.098, 556.239 42.500 C 551.829 39.721, 551.585 38.148, 554.560 31.649 C 556.506 27.398, 556.981 25.172, 556.459 22.741 C 555.324 17.456, 554.189 16.128, 549.788 14.943 C 543.297 13.195, 535.864 14.560, 530.033 18.571 C 527.292 20.457, 524.058 22, 522.847 22 C 521.637 22, 518.266 20.360, 515.356 18.356 C 509.377 14.238, 502.913 13.146, 497 15.253 M 145.212 35.020 C 141.204 36.070, 137.542 37.165, 137.076 37.453 C 136.609 37.742, 135.990 37.071, 135.701 35.964 C 135.196 34.034, 134.489 33.961, 118.837 34.225 L 102.500 34.500 102.237 68.750 L 101.974 103 119.987 103 L 138 103 138 82.523 L 138 62.046 140.541 60.381 C 142.576 59.048, 143.572 58.939, 145.541 59.837 L 148 60.957 148 81.979 L 148 103 166.085 103 L 184.169 103 183.828 76.250 C 183.513 51.640, 183.319 49.137, 181.395 44.967 C 176.203 33.710, 163.519 30.223, 145.212 35.020 M 619.197 34.559 C 616.281 35.344, 613.048 36.439, 612.013 36.993 C 609.381 38.402, 609 38.276, 609 36 C 609 34.076, 608.333 34, 591.500 34 L 574 34 574 68.500 L 574 103 592 103 L 610 103 610 82.567 C 610 63.433, 610.120 62.097, 611.884 61.537 C 613.457 61.038, 628.812 59.032, 631.250 59.008 C 631.663 59.003, 632 53.150, 632 46 L 632 33 628.250 33.066 C 626.188 33.102, 622.114 33.774, 619.197 34.559 M 41 39.500 L 41 45 49.378 45 C 58.667 45, 60.371 44.076, 59.822 39.334 C 59.383 35.535, 55.973 34.033, 47.750 34.015 L 41 34 41 39.500 M 192.044 59.750 C 192.091 87.377, 192.470 89.995, 197.356 96.400 C 201.733 102.139, 207.981 104.504, 218.500 104.403 C 224.767 104.343, 229.231 103.707, 233.201 102.309 C 237.809 100.686, 239.001 100.560, 239.419 101.651 C 239.825 102.708, 243.516 103, 256.469 103 L 273 103 273 68.500 L 273 34 255.500 34 L 238 34 238 54.965 C 238 74.669, 237.884 75.992, 236.066 76.965 C 232.972 78.620, 229.175 78.195, 228.035 76.066 C 227.420 74.917, 227 65.985, 227 54.066 L 227 34 209.500 34 L 192 34 192.044 59.750 M 373.569 36.250 C 373.087 38.557, 371 56.979, 371 58.920 C 371 59.533, 372.946 60, 375.500 60 L 380 60 380 81.500 L 380 103 398 103 L 416 103 416 68.500 L 416 34 395.019 34 C 374.067 34, 374.037 34.003, 373.569 36.250 M 318.449 61.057 C 315.797 63.987, 315.132 74.989, 317.466 77.323 C 319.362 79.219, 323.188 79.505, 326.066 77.965 C 327.741 77.068, 328 75.811, 328 68.572 C 328 61.873, 327.686 60.093, 326.418 59.607 C 323.398 58.448, 320.300 59.011, 318.449 61.057 M 41 73.500 L 41 79 48.929 79 C 57.840 79, 60 77.822, 60 72.964 C 60 69.020, 57.650 68, 48.566 68 L 41 68 41 73.500" stroke="none" fill="#fffcfc" fill-rule="evenodd"/><path d="" stroke="none" fill="#fcfcfc" fill-rule="evenodd"/></svg>